<svg width="39" height="39" viewBox="0 0 39 39" fill="none" xmlns="http://www.w3.org/2000/svg">
<path d="M19.5833 0.990479C18.9534 0.990479 18.3493 1.2407 17.9039 1.6861C17.4585 2.1315 17.2083 2.73559 17.2083 3.36548V17.6155H2.95825C2.32836 17.6155 1.72427 17.8657 1.27887 18.3111C0.833475 18.7565 0.583252 19.3606 0.583252 19.9905C0.583252 20.6204 0.833475 21.2245 1.27887 21.6699C1.72427 22.1153 2.32836 22.3655 2.95825 22.3655H17.2083V36.6155C17.2083 37.2454 17.4585 37.8495 17.9039 38.2949C18.3493 38.7403 18.9534 38.9905 19.5833 38.9905C20.2131 38.9905 20.8172 38.7403 21.2626 38.2949C21.708 37.8495 21.9583 37.2454 21.9583 36.6155V22.3655H36.2083C36.8381 22.3655 37.4422 22.1153 37.8876 21.6699C38.333 21.2245 38.5833 20.6204 38.5833 19.9905C38.5833 19.3606 38.333 18.7565 37.8876 18.3111C37.4422 17.8657 36.8381 17.6155 36.2083 17.6155H21.9583V3.36548C21.9583 2.73559 21.708 2.1315 21.2626 1.6861C20.8172 1.2407 20.2131 0.990479 19.5833 0.990479Z" fill="white"/>
</svg>
