<svg width="39" height="42" viewBox="0 0 39 42" fill="none" xmlns="http://www.w3.org/2000/svg">
<path fill-rule="evenodd" clip-rule="evenodd" d="M15.9137 3.45464C16.2462 2.71743 16.8077 2.0876 17.5274 1.64456C18.2471 1.20151 19.0927 0.965088 19.9578 0.965088C20.8228 0.965088 21.6685 1.20151 22.3882 1.64456C23.1078 2.0876 23.6693 2.71743 24.0019 3.45464L34.9229 27.6519C34.9448 27.6964 34.9667 27.7436 34.9857 27.7894L38.6041 35.8075C38.8323 36.2988 38.9526 36.827 38.9583 37.3615C38.9639 37.896 38.8548 38.4262 38.6371 38.9215C38.4194 39.4168 38.0974 39.8674 37.69 40.2471C37.2825 40.6269 36.7975 40.9283 36.263 41.1339C35.7285 41.3395 35.1552 41.4453 34.5762 41.4451C33.9972 41.4449 33.424 41.3387 32.8897 41.1328C32.3554 40.9268 31.8706 40.625 31.4635 40.245C31.0563 39.865 30.7347 39.4143 30.5174 38.9188L27.9897 33.3191H11.9273L9.3996 38.9188C9.18229 39.4143 8.86074 39.865 8.45354 40.245C8.04635 40.625 7.56159 40.9268 7.0273 41.1328C6.493 41.3387 5.91977 41.4449 5.34076 41.4451C4.76175 41.4453 4.18844 41.3395 3.65399 41.1339C3.11953 40.9283 2.63453 40.6269 2.22704 40.2471C1.81955 39.8674 1.49764 39.4168 1.27994 38.9215C1.06223 38.4262 0.953051 37.896 0.958705 37.3615C0.964359 36.827 1.08474 36.2988 1.31287 35.8075L4.93131 27.7908C4.9513 27.7437 4.97223 27.6969 4.9941 27.6506L15.9151 3.45464H15.9137ZM19.9585 3.66224C19.6703 3.66222 19.3885 3.74093 19.1487 3.88846C18.9089 4.03598 18.7217 4.24573 18.6107 4.49128L7.68384 28.702L7.66924 28.729C7.661 28.7477 7.65321 28.7666 7.64587 28.7856L7.63127 28.8139L4.00845 36.8442C3.85935 37.1742 3.85835 37.5453 4.00568 37.876C4.15301 38.2067 4.4366 38.4698 4.79405 38.6074C5.15151 38.7451 5.55355 38.746 5.91174 38.61C6.26993 38.474 6.55493 38.2122 6.70403 37.8822L9.6055 31.452C9.71645 31.2065 9.90364 30.9967 10.1435 30.8492C10.3833 30.7017 10.6651 30.623 10.9533 30.623H28.9637C29.2519 30.623 29.5337 30.7017 29.7735 30.8492C30.0134 30.9967 30.2005 31.2065 30.3115 31.452L33.213 37.8822C33.3621 38.2122 33.6471 38.474 34.0052 38.61C34.3634 38.746 34.7655 38.7451 35.1229 38.6074C35.4804 38.4698 35.764 38.2067 35.9113 37.876C36.0586 37.5453 36.0576 37.1742 35.9085 36.8442L32.2843 28.8139L32.2711 28.7856C32.2664 28.7752 32.2615 28.7649 32.2565 28.7546L32.2463 28.729L32.2317 28.702L21.3063 4.49128C21.1953 4.24573 21.0081 4.03598 20.7683 3.88846C20.5285 3.74093 20.2467 3.66222 19.9585 3.66224ZM19.9585 10.672C20.2467 10.672 20.5285 10.7507 20.7683 10.8983C21.0081 11.0458 21.1953 11.2555 21.3063 11.5011L27.8773 26.0599C27.9699 26.2647 28.0062 26.4876 27.9831 26.7085C27.96 26.9295 27.8781 27.1417 27.7448 27.3264C27.6114 27.5112 27.4307 27.6626 27.2187 27.7674C27.0067 27.8721 26.77 27.9269 26.5295 27.9269H13.3875C13.147 27.9269 12.9103 27.8721 12.6983 27.7674C12.4863 27.6626 12.3056 27.5112 12.1722 27.3264C12.0389 27.1417 11.957 26.9295 11.9339 26.7085C11.9108 26.4876 11.9471 26.2647 12.0397 26.0599L18.6107 11.5011C18.7217 11.2555 18.9089 11.0458 19.1487 10.8983C19.3885 10.7507 19.6703 10.672 19.9585 10.672ZM15.5778 25.2308H24.3392L19.9585 15.525L15.5778 25.2308Z" fill="white"/>
</svg>
