<svg width="61" height="51" viewBox="0 0 61 51" fill="none" xmlns="http://www.w3.org/2000/svg">
<mask id="path-1-inside-1_204_1693" fill="white">
<path fill-rule="evenodd" clip-rule="evenodd" d="M36.0238 47.8857C36.2005 44.4597 36.3011 40.8138 36.3124 37.032C36.3363 29.0655 35.9602 21.6991 35.3035 15.7203L26.2642 15.6897C25.5717 21.6639 25.1516 29.0276 25.1277 36.9941C25.1164 40.7758 25.1952 44.4224 25.3513 47.8494C24.0385 48.1129 23.2288 48.4766 23.2276 48.8806C23.2252 49.7017 26.5615 50.3785 30.6796 50.3925C34.7977 50.4064 38.1381 49.7521 38.1406 48.9311C38.1418 48.5271 37.3346 48.158 36.0238 47.8857ZM30.8283 0.838872C32.5454 0.844683 34.0667 5.85549 35.069 13.7373L26.5105 13.7084C27.56 5.83347 29.1113 0.833062 30.8283 0.838872ZM40.597 36.9948L45.7721 37.5072L42.5264 44.9368L44.1693 43.1808L48.3555 44.4668L41.1719 50.8387L60.4979 44.6633L51.1525 43.5518L47.0845 40.0647L50.0349 36.9112L49.9635 36.8583L54.9235 31.1744L40.597 36.9948ZM15.2238 37.5079L20.3989 36.9954L6.07236 31.1751L11.0324 36.8589L10.961 36.9118L13.9114 40.0654L9.84384 43.5521L0.499023 44.6636L19.825 50.839L12.6415 44.4672L16.8266 43.1814L18.4695 44.9375L15.2238 37.5079ZM45.25 30.2765L39.6078 34.3054L45.0093 23.0543L45.25 30.2765ZM22.7378 34.3054L17.0955 30.2765L17.3362 23.0543L22.7378 34.3054Z"/>
</mask>
<path fill-rule="evenodd" clip-rule="evenodd" d="M36.0238 47.8857C36.2005 44.4597 36.3011 40.8138 36.3124 37.032C36.3363 29.0655 35.9602 21.6991 35.3035 15.7203L26.2642 15.6897C25.5717 21.6639 25.1516 29.0276 25.1277 36.9941C25.1164 40.7758 25.1952 44.4224 25.3513 47.8494C24.0385 48.1129 23.2288 48.4766 23.2276 48.8806C23.2252 49.7017 26.5615 50.3785 30.6796 50.3925C34.7977 50.4064 38.1381 49.7521 38.1406 48.9311C38.1418 48.5271 37.3346 48.158 36.0238 47.8857ZM30.8283 0.838872C32.5454 0.844683 34.0667 5.85549 35.069 13.7373L26.5105 13.7084C27.56 5.83347 29.1113 0.833062 30.8283 0.838872ZM40.597 36.9948L45.7721 37.5072L42.5264 44.9368L44.1693 43.1808L48.3555 44.4668L41.1719 50.8387L60.4979 44.6633L51.1525 43.5518L47.0845 40.0647L50.0349 36.9112L49.9635 36.8583L54.9235 31.1744L40.597 36.9948ZM15.2238 37.5079L20.3989 36.9954L6.07236 31.1751L11.0324 36.8589L10.961 36.9118L13.9114 40.0654L9.84384 43.5521L0.499023 44.6636L19.825 50.839L12.6415 44.4672L16.8266 43.1814L18.4695 44.9375L15.2238 37.5079ZM45.25 30.2765L39.6078 34.3054L45.0093 23.0543L45.25 30.2765ZM22.7378 34.3054L17.0955 30.2765L17.3362 23.0543L22.7378 34.3054Z" fill="#F27127"/>
<path d="M36.3124 37.032L37.3124 37.035L37.3124 37.035L36.3124 37.032ZM36.0238 47.8857L35.0251 47.8342L34.981 48.6903L35.8204 48.8647L36.0238 47.8857ZM35.3035 15.7203L36.2975 15.6111L36.2 14.7233L35.3069 14.7203L35.3035 15.7203ZM26.2642 15.6897L26.2675 14.6897L25.3737 14.6867L25.2708 15.5746L26.2642 15.6897ZM25.1277 36.9941L26.1277 36.9971L26.1277 36.9971L25.1277 36.9941ZM25.3513 47.8494L25.5481 48.8298L26.3894 48.661L26.3503 47.8039L25.3513 47.8494ZM23.2276 48.8806L22.2276 48.8776L22.2276 48.8776L23.2276 48.8806ZM30.6796 50.3925L30.683 49.3925L30.6796 50.3925ZM38.1406 48.9311L39.1406 48.9341L39.1406 48.9341L38.1406 48.9311ZM35.069 13.7373L35.0656 14.7373L36.2047 14.7412L36.061 13.6112L35.069 13.7373ZM30.8283 0.838872L30.8317 -0.161122L30.8283 0.838872ZM26.5105 13.7084L25.5193 13.5763L25.3689 14.7045L26.5072 14.7084L26.5105 13.7084ZM45.7721 37.5072L46.6884 37.9076L47.2389 36.6476L45.8706 36.5121L45.7721 37.5072ZM40.597 36.9948L40.2206 36.0683L40.4985 37.9899L40.597 36.9948ZM42.5264 44.9368L41.61 44.5365L43.2566 45.62L42.5264 44.9368ZM44.1693 43.1808L44.4629 42.2249L43.8658 42.0414L43.439 42.4976L44.1693 43.1808ZM48.3555 44.4668L49.019 45.2149L50.3508 44.0337L48.6491 43.5109L48.3555 44.4668ZM41.1719 50.8387L40.5083 50.0906L41.4762 51.7913L41.1719 50.8387ZM60.4979 44.6633L60.8022 45.6159L60.616 43.6703L60.4979 44.6633ZM51.1525 43.5518L50.5016 44.311L50.7325 44.5089L51.0344 44.5448L51.1525 43.5518ZM47.0845 40.0647L46.3543 39.3815L45.6408 40.1442L46.4337 40.8239L47.0845 40.0647ZM50.0349 36.9112L50.7651 37.5943L51.5311 36.7756L50.6304 36.1078L50.0349 36.9112ZM49.9635 36.8583L49.2101 36.2008L48.4981 37.0167L49.368 37.6616L49.9635 36.8583ZM54.9235 31.1744L55.677 31.8319L54.5472 30.2479L54.9235 31.1744ZM20.3989 36.9954L20.4974 37.9906L20.7753 36.069L20.3989 36.9954ZM15.2238 37.5079L15.1253 36.5128L13.757 36.6483L14.3075 37.9082L15.2238 37.5079ZM6.07236 31.1751L6.44875 30.2486L5.3189 31.8326L6.07236 31.1751ZM11.0324 36.8589L11.6279 37.6623L12.4978 37.0174L11.7858 36.2014L11.0324 36.8589ZM10.961 36.9118L10.3655 36.1085L9.46476 36.7762L10.2308 37.595L10.961 36.9118ZM13.9114 40.0654L14.5622 40.8246L15.3551 40.1449L14.6416 39.3822L13.9114 40.0654ZM9.84384 43.5521L9.96194 44.5451L10.2638 44.5092L10.4947 44.3114L9.84384 43.5521ZM0.499023 44.6636L0.380919 43.6706L0.194646 45.6161L0.499023 44.6636ZM19.825 50.839L19.5206 51.7915L20.4886 50.0909L19.825 50.839ZM12.6415 44.4672L12.3479 43.5112L10.6462 44.034L11.9779 45.2153L12.6415 44.4672ZM16.8266 43.1814L17.5569 42.4983L17.1301 42.0421L16.533 42.2255L16.8266 43.1814ZM18.4695 44.9375L17.7393 45.6207L19.3859 44.5371L18.4695 44.9375ZM39.6078 34.3054L38.7063 33.8726L40.1889 35.1192L39.6078 34.3054ZM45.25 30.2765L45.8311 31.0903L46.2673 30.7788L46.2494 30.2432L45.25 30.2765ZM45.0093 23.0543L46.0088 23.021L44.1078 22.6215L45.0093 23.0543ZM17.0955 30.2765L16.0961 30.2432L16.0783 30.7788L16.5144 31.0903L17.0955 30.2765ZM22.7378 34.3054L22.1566 35.1192L23.6392 33.8726L22.7378 34.3054ZM17.3362 23.0543L18.2377 22.6215L16.3368 23.021L17.3362 23.0543ZM35.3124 37.029C35.3011 40.7951 35.2009 44.4249 35.0251 47.8342L37.0225 47.9372C37.2 44.4945 37.301 40.8324 37.3124 37.035L35.3124 37.029ZM34.3095 15.8295C34.9614 21.7647 35.3362 29.093 35.3124 37.029L37.3124 37.035C37.3363 29.0379 36.959 21.6334 36.2975 15.6111L34.3095 15.8295ZM26.2608 16.6897L35.3001 16.7203L35.3069 14.7203L26.2675 14.6897L26.2608 16.6897ZM26.1277 36.9971C26.1515 29.0612 26.5701 21.7356 27.2575 15.8048L25.2708 15.5746C24.5733 21.5923 24.1516 28.994 24.1277 36.9911L26.1277 36.9971ZM26.3503 47.8039C26.1949 44.3935 26.1164 40.7632 26.1277 36.9971L24.1277 36.9911C24.1163 40.7885 24.1955 44.4512 24.3524 47.8949L26.3503 47.8039ZM24.2276 48.8836C24.2268 49.1416 24.0929 49.2829 24.0767 49.2989C24.0627 49.3127 24.0953 49.278 24.2271 49.2154C24.4859 49.0923 24.9245 48.955 25.5481 48.8298L25.1546 46.8689C24.4653 47.0073 23.8427 47.1836 23.3682 47.4092C23.1332 47.5209 22.8811 47.6694 22.674 47.8733C22.4646 48.0793 22.229 48.4176 22.2276 48.8776L24.2276 48.8836ZM30.683 49.3925C28.6691 49.3857 26.8741 49.2162 25.6073 48.9592C24.9656 48.829 24.5111 48.6865 24.2412 48.5581C24.1037 48.4927 24.0669 48.4555 24.0783 48.4667C24.0912 48.4794 24.2284 48.6215 24.2276 48.8836L22.2276 48.8776C22.2262 49.345 22.4671 49.6879 22.6781 49.8948C22.8876 50.1002 23.1432 50.2506 23.3825 50.3644C23.8661 50.5943 24.5027 50.7758 25.2096 50.9192C26.6399 51.2094 28.5721 51.3853 30.6763 51.3925L30.683 49.3925ZM37.1406 48.9281C37.1414 48.6658 37.2795 48.5245 37.2926 48.5117C37.3042 48.5005 37.2674 48.5374 37.1295 48.6018C36.8589 48.7283 36.4037 48.8677 35.7613 48.9935C34.4929 49.242 32.6969 49.3993 30.683 49.3925L30.6763 51.3925C32.7805 51.3996 34.7137 51.2367 36.1457 50.9562C36.8534 50.8176 37.4911 50.6404 37.9762 50.4137C38.2162 50.3016 38.4729 50.1528 38.6837 49.9487C38.8961 49.743 39.1392 49.4016 39.1406 48.9341L37.1406 48.9281ZM35.8204 48.8647C36.443 48.9941 36.8807 49.1344 37.1387 49.2592C37.2701 49.3228 37.3025 49.3576 37.2887 49.3439C37.2727 49.328 37.1398 49.1859 37.1406 48.9281L39.1406 48.9341C39.1419 48.4743 38.9086 48.1346 38.7006 47.9274C38.4949 47.7223 38.2438 47.5721 38.0097 47.4588C37.5367 47.23 36.9155 47.0496 36.2272 46.9066L35.8204 48.8647ZM36.061 13.6112C35.5568 9.64626 34.9166 6.35292 34.1687 4.02832C33.7969 2.87284 33.3801 1.89721 32.9039 1.18983C32.4559 0.524457 31.7791 -0.157916 30.8317 -0.161122L30.8249 1.83887C30.7361 1.83857 30.8934 1.78472 31.2449 2.30681C31.5681 2.78691 31.9163 3.55768 32.2648 4.64086C32.9574 6.79357 33.5789 9.94655 34.077 13.8635L36.061 13.6112ZM26.5072 14.7084L35.0656 14.7373L35.0724 12.7373L26.5139 12.7084L26.5072 14.7084ZM30.8317 -0.161122C29.8841 -0.164329 29.2029 0.513729 28.7509 1.17622C28.2703 1.88048 27.8477 2.85336 27.469 4.00632C26.7072 6.32587 26.0472 9.61485 25.5193 13.5763L27.5018 13.8405C28.0233 9.92699 28.6637 6.77832 29.3691 4.63039C29.7241 3.54961 30.0769 2.7813 30.4029 2.30352C30.7574 1.78398 30.9141 1.83917 30.8249 1.83887L30.8317 -0.161122ZM45.8706 36.5121L40.6956 35.9996L40.4985 37.9899L45.6735 38.5024L45.8706 36.5121ZM43.4428 45.3371L46.6884 37.9076L44.8557 37.1069L41.61 44.5365L43.4428 45.3371ZM43.439 42.4976L41.7961 44.2536L43.2566 45.62L44.8995 43.864L43.439 42.4976ZM48.6491 43.5109L44.4629 42.2249L43.8756 44.1367L48.0618 45.4227L48.6491 43.5109ZM41.8354 51.5868L49.019 45.2149L47.6919 43.7187L40.5083 50.0906L41.8354 51.5868ZM60.1935 43.7108L40.8675 49.8862L41.4762 51.7913L60.8022 45.6159L60.1935 43.7108ZM51.0344 44.5448L60.3798 45.6563L60.616 43.6703L51.2706 42.5588L51.0344 44.5448ZM46.4337 40.8239L50.5016 44.311L51.8033 42.7926L47.7354 39.3055L46.4337 40.8239ZM49.3046 36.228L46.3543 39.3815L47.8148 40.7479L50.7651 37.5943L49.3046 36.228ZM49.368 37.6616L49.4393 37.7145L50.6304 36.1078L50.5591 36.0549L49.368 37.6616ZM54.1701 30.5169L49.2101 36.2008L50.717 37.5158L55.677 31.8319L54.1701 30.5169ZM40.9734 37.9212L55.2999 32.1009L54.5472 30.2479L40.2206 36.0683L40.9734 37.9212ZM20.3003 36.0003L15.1253 36.5128L15.3224 38.503L20.4974 37.9906L20.3003 36.0003ZM5.69597 32.1015L20.0225 37.9219L20.7753 36.069L6.44875 30.2486L5.69597 32.1015ZM11.7858 36.2014L6.82581 30.5176L5.3189 31.8326L10.2789 37.5164L11.7858 36.2014ZM11.5566 37.7152L11.6279 37.6623L10.4368 36.0556L10.3655 36.1085L11.5566 37.7152ZM14.6416 39.3822L11.6913 36.2286L10.2308 37.595L13.1811 40.7486L14.6416 39.3822ZM10.4947 44.3114L14.5622 40.8246L13.2605 39.3061L9.19301 42.7929L10.4947 44.3114ZM0.617128 45.6566L9.96194 44.5451L9.72573 42.5591L0.380919 43.6706L0.617128 45.6566ZM20.1294 49.8864L0.803401 43.711L0.194646 45.6161L19.5206 51.7915L20.1294 49.8864ZM11.9779 45.2153L19.1614 51.5871L20.4886 50.0909L13.3051 43.719L11.9779 45.2153ZM16.533 42.2255L12.3479 43.5112L12.9352 45.4231L17.1203 44.1374L16.533 42.2255ZM19.1998 44.2543L17.5569 42.4983L16.0964 43.8646L17.7393 45.6207L19.1998 44.2543ZM14.3075 37.9082L17.5532 45.3378L19.3859 44.5371L16.1402 37.1076L14.3075 37.9082ZM40.1889 35.1192L45.8311 31.0903L44.6688 29.4626L39.0266 33.4915L40.1889 35.1192ZM44.1078 22.6215L38.7063 33.8726L40.5092 34.7382L45.9108 23.4871L44.1078 22.6215ZM46.2494 30.2432L46.0088 23.021L44.0099 23.0876L44.2505 30.3098L46.2494 30.2432ZM16.5144 31.0903L22.1566 35.1192L23.3189 33.4915L17.6767 29.4626L16.5144 31.0903ZM16.3368 23.021L16.0961 30.2432L18.095 30.3098L18.3356 23.0876L16.3368 23.021ZM23.6392 33.8726L18.2377 22.6215L16.4347 23.4871L21.8363 34.7382L23.6392 33.8726Z" fill="#F27127" mask="url(#path-1-inside-1_204_1693)"/>
</svg>
