<svg width="40" height="40" viewBox="0 0 40 40" fill="none" xmlns="http://www.w3.org/2000/svg">
<path fill-rule="evenodd" clip-rule="evenodd" d="M0.783691 19.8882C0.783691 9.27015 9.39198 0.661865 20.0101 0.661865C30.6282 0.661865 39.2364 9.27015 39.2364 19.8882C39.2364 23.8053 38.0636 27.4506 36.0513 30.4909L38.1098 32.5507C38.477 32.9054 38.77 33.3298 38.9715 33.7989C39.173 34.268 39.2791 34.7726 39.2835 35.2832C39.288 35.7938 39.1907 36.3001 38.9973 36.7727C38.804 37.2452 38.5185 37.6746 38.1574 38.0356C37.7964 38.3967 37.3671 38.6822 36.8945 38.8755C36.4219 39.0689 35.9156 39.1662 35.405 39.1617C34.8944 39.1573 34.3899 39.0512 33.9207 38.8497C33.4516 38.6482 33.0273 38.3552 32.6726 37.9879L30.6128 35.9294C27.4694 38.0123 23.7809 39.1204 20.0101 39.1146C9.39198 39.1146 0.783691 30.5063 0.783691 19.8882ZM20.0101 3.22538C10.807 3.22538 3.34721 10.6852 3.34721 19.8882C3.34721 29.0913 10.807 36.5511 20.0101 36.5511C23.7541 36.5511 27.2071 35.318 29.9886 33.2339L30.8781 32.5674L34.485 36.1755C34.7267 36.409 35.0505 36.5382 35.3866 36.5353C35.7226 36.5324 36.0441 36.3976 36.2818 36.1599C36.5194 35.9223 36.6542 35.6008 36.6571 35.2647C36.66 34.9287 36.5309 34.6049 36.2974 34.3631L32.6905 30.7563L33.357 29.8667C35.5155 26.9883 36.6793 23.486 36.6729 19.8882C36.6729 10.6852 29.2131 3.22538 20.0101 3.22538ZM20.0101 8.35242C16.9506 8.35242 14.0164 9.56779 11.853 11.7312C9.68962 13.8946 8.47424 16.8287 8.47424 19.8882C8.47424 22.9477 9.68962 25.8819 11.853 28.0453C14.0164 30.2087 16.9506 31.4241 20.0101 31.4241C21.7917 31.4241 23.4785 31.0203 24.9833 30.3L22.4185 27.7339C22.0512 27.3792 21.7583 26.9549 21.5568 26.4857C21.3552 26.0166 21.2492 25.512 21.2447 25.0014C21.2403 24.4909 21.3376 23.9845 21.5309 23.5119C21.7243 23.0394 22.0098 22.61 22.3708 22.249C22.7319 21.888 23.1612 21.6024 23.6338 21.4091C24.1063 21.2157 24.6127 21.1185 25.1233 21.1229C25.6338 21.1273 26.1384 21.2334 26.6075 21.4349C27.0767 21.6365 27.501 21.9294 27.8557 22.2967L30.4218 24.8615C31.1644 23.3089 31.5485 21.6093 31.5459 19.8882C31.5459 16.8287 30.3305 13.8946 28.1671 11.7312C26.0037 9.56779 23.0696 8.35242 20.0101 8.35242ZM5.91072 19.8882C5.91072 12.1016 12.2234 5.7889 20.0101 5.7889C27.7967 5.7889 34.1094 12.1016 34.1094 19.8882C34.1094 22.7594 33.2506 25.4344 31.7728 27.6647L30.9063 28.9721L26.0433 24.1091C25.8016 23.8756 25.4778 23.7464 25.1417 23.7493C24.8056 23.7522 24.4842 23.887 24.2465 24.1247C24.0089 24.3623 23.8741 24.6838 23.8711 25.0199C23.8682 25.356 23.9974 25.6797 24.2309 25.9215L29.0939 30.7845L27.7865 31.6509C25.4811 33.1788 22.7758 33.9917 20.0101 33.9876C12.2234 33.9876 5.91072 27.6749 5.91072 19.8882Z" fill="white"/>
</svg>
