<svg width="231" height="231" viewBox="0 0 231 231" fill="none" xmlns="http://www.w3.org/2000/svg">
<path fill-rule="evenodd" clip-rule="evenodd" d="M228.716 113.917H215.726V114.917H200.726V115.917H215.726V116.917H228.716C227.919 178.135 178.443 227.611 117.226 228.408V215.417H116.226V200.417H115.226V215.417H114.226V228.408C53.008 227.611 3.53176 178.135 2.73534 116.917H15.7256V115.917H30.7256V114.917H15.7256V113.917H2.73534C3.53176 52.6999 53.008 3.22365 114.226 2.42723V15.4175H115.226V30.4175H116.226V15.4175H117.226V2.42723C178.443 3.22365 227.919 52.6999 228.716 113.917ZM117.226 0.427063C179.548 1.22373 229.919 51.5953 230.716 113.917H230.726V114.917V115.417V115.917V116.917H230.716C229.919 179.24 179.548 229.611 117.226 230.408V230.417H116.226H115.726H115.226H114.226V230.408C51.9034 229.611 1.53183 179.24 0.735168 116.917H0.725586V115.917V115.417V114.917V113.917H0.735168C1.53183 51.5953 51.9034 1.22373 114.226 0.427063V0.41748H115.226H115.726H116.226H117.226V0.427063Z" fill="#F27127"/>
</svg>
